<?xml version="1.0" encoding="UTF-8"?>
<svg width="416" height="112" version="1.1" viewBox="0 0 416 112" xmlns="http://www.w3.org/2000/svg" xmlns:xlink="http://www.w3.org/1999/xlink"><path fill="#ffffff" d="m227 0-12.6 90.3h15.2l12.7-90.3zm30.8.763-2.34 16.4h15.4l2.15-16.4zm-135 23.4c-4.01.0455-8.11.66-11.8 1.86-4.21 1.38-7.74 3.53-10.6 6.46-2.48 2.56-4.18 5.33-5.27 8.57-.441 1.32-1.02 3.68-1.02 4.14l15-.311c1.16-5.23 5.07-8.37 11.2-8.95 4.51-.43 8.5.755 10.6 3.16 1.99 2.26 2.56 5.38 1.87 10.2-.155 1.06-.238 2.01-.282 2.01l-9.46.0821c-5.21.00094-10.6.0792-11.9.176-7.11.504-12.7 2.65-16.6 6.43-2.94 2.81-4.71 5.99-5.68 10.2-.442 1.91-.617 6.42-.327 8.41 1.22 8.35 7.66 14 17.1 14.9 1.93.189 5.48.0211 7.78-.366 6.82-1.15 12.5-4.85 15.6-10.2.507-.873.821-1.24 1.06-1.24.31 0 .336.127.336 1.69 0 4.74 2.04 7.82 6.11 9.22 1.19.409 1.66.468 4.17.534 2.36.0616 3.2.0131 5.06-.301 1.22-.207 2.25-.395 2.27-.419.0504-.0486 1.55-11.1 1.51-11.2-.0134-.0183-.33.0385-.704.125-.374.0868-1.09.158-1.6.16-1.97.009-2.83-.988-2.81-3.25.006-.707.788-6.49 1.74-12.8 1.95-13.1 2.07-14 2.07-16.9-.002-9.46-3.86-16.2-11.3-19.7-3.79-1.79-8.82-2.67-14-2.61zm262 .0234c-1.55.0304-3.12.153-4.7.374-6.92.963-13.1 3.92-18 8.55-2.99 2.86-4.86 5.38-6.72 9.04-5.27 10.3-5.67 24.3-.999 34 1.35 2.83 2.87 4.97 5.11 7.21 4.81 4.81 10.9 7.44 18.7 8.04 3.81.298 8.69-.104 12.5-1.03 8.83-2.16 15.9-7.52 19.6-14.7.711-1.42 1.65-3.85 1.81-4.68l.119-.641h-15.3l-.618 1.18c-2.03 3.87-6.09 6.72-11.2 7.83-2.08.457-6.02.417-8.06-.0821-3.97-.971-7.14-3.46-8.88-6.96-1.3-2.62-1.93-6.1-1.7-9.36l.119-1.69h45.9l.272-.9c.753-2.5 1.03-4.27 1.13-9.12.0542-2.7-.147-4.35-.483-6.01-1.46-7.17-5.04-12.6-10.7-16.4-4.87-3.2-11.1-4.83-17.9-4.69zm-61.7.0332c-1.7.0136-3.42.144-4.75.385-7.16 1.3-13.1 5.12-17.4 11.1-.858 1.21-1.24 1.61-1.52 1.61-.382 0-.382-.008-.495-3.98-.0661-2.37-.119-5.11-.111-7.74h-13.5l-9.11 64.7h15.4c.004-.555 4.85-34.7 5.1-35.9.154-.754.548-2.18.876-3.17 2.08-6.25 6.29-10.9 11.5-12.9 2.25-.822 3.62-1.07 6.09-1.08 2.41-.0121 3.64.182 5.45.859 4.26 1.59 6.38 6.12 5.79 12.4l-5.49 39.7h15.5l2.91-20.7c1.41-8.15 2.74-15.6 2.91-24.5-.0841-3.05-.23-6.1-1.22-9.08-2.12-6.41-6.54-10.2-13.3-11.4-1.23-.221-2.91-.323-4.61-.309zm-323 1.36 8.16 64.7 19.2-.004 16.2-45.6 3.85 45.6 19.2-.002 26.2-64.7h-15.9l-18.5 49.3-3.6-49.2-17.5-.0821-17.6 49.4-4.47-49.4zm155 0c4.86 20.6 10.4 41 15.4 61.6l-1.63 3.24c-1.81 3.59-2.74 4.96-4.17 6.12-3.11 2.53-8.2 3.4-14 2.38-.84-.148-1.58-.209-1.65-.135-.162.182-1.79 12.2-1.67 12.3.159.159 2.93.596 4.72.743 2.45.203 4.3.205 6.84.0117 10.8-.826 17.5-4.93 22.8-14.1.689-1.18 35-70.9 35.6-72.2h-16.6l-20.8 46.5-8.88-46.5zm99.5 0-9.11 64.7h15.2l9.08-64.7zm130 10.4c4.11-.103 8.15 1.22 10.7 3.81 2.36 2.36 3.68 5.8 3.68 9.62v1.44l-30.5-.215c.006-.468.499-2.5.861-3.55 1.42-4.14 4.25-7.42 8.04-9.34 2.22-1.12 4.71-1.7 7.17-1.76zm-262 25.5 8.69.155c-.00012.744-.748 4.61-1.13 5.82-1.91 6.11-6.49 10.4-12.3 11.6-1.86.385-5.13.413-6.76.0587-1.63-.354-3.47-1.29-4.45-2.27-2.33-2.33-2.92-6.4-1.39-9.71 1.22-2.66 3.75-4.48 7.38-5.33 1.11-.257 2.5-.308 9.98-.37z"/></svg>
